<svg width="38" height="38" viewBox="0 0 38 38" fill="none" xmlns="http://www.w3.org/2000/svg">
<g filter="url(#filter0_d)">
<path d="M14.1392 11.9497C14.18 10.7065 14.608 9.71122 15.4232 8.96394C16.2724 8.1759 17.434 7.78188 18.9082 7.78188C20.2941 7.78188 21.4184 8.14533 22.2812 8.87223C23.1372 9.58554 23.5652 10.5095 23.5652 11.644C23.5652 13.1046 22.845 14.2629 21.4048 15.1188C20.7391 15.5129 20.2873 15.8695 20.0495 16.1888C19.8118 16.5149 19.6929 16.9293 19.6929 17.432V18.0129H17.3287L17.3186 17.3199C17.271 16.5658 17.4001 15.934 17.7058 15.4245C18.0047 14.9286 18.5108 14.4701 19.2241 14.0489C19.8627 13.6616 20.3043 13.305 20.5488 12.9789C20.7934 12.646 20.9157 12.2316 20.9157 11.7357C20.9157 11.199 20.7187 10.7608 20.3247 10.4211C19.9306 10.0815 19.4143 9.91163 18.7758 9.91163C18.1236 9.91163 17.5971 10.0951 17.1963 10.4619C16.7955 10.8288 16.5747 11.3247 16.5339 11.9497H14.1392ZM18.6229 22.8736C18.1134 22.8736 17.7058 22.7241 17.4001 22.4252C17.0876 22.1331 16.9313 21.7425 16.9313 21.2533C16.9313 20.7574 17.0876 20.3634 17.4001 20.0713C17.7058 19.7724 18.1134 19.6229 18.6229 19.6229C19.1392 19.6229 19.5502 19.7724 19.8559 20.0713C20.1616 20.3634 20.3145 20.7574 20.3145 21.2533C20.3145 21.7425 20.1616 22.1331 19.8559 22.4252C19.5502 22.7241 19.1392 22.8736 18.6229 22.8736Z" fill="white"/>
<circle cx="19" cy="15" r="13.6957" stroke="white" stroke-width="2.6087"/>
</g>
<defs>
<filter id="filter0_d" x="0" y="0" width="38" height="38" filterUnits="userSpaceOnUse" color-interpolation-filters="sRGB">
<feFlood flood-opacity="0" result="BackgroundImageFix"/>
<feColorMatrix in="SourceAlpha" type="matrix" values="0 0 0 0 0 0 0 0 0 0 0 0 0 0 0 0 0 0 127 0"/>
<feOffset dy="4"/>
<feGaussianBlur stdDeviation="2"/>
<feColorMatrix type="matrix" values="0 0 0 0 0 0 0 0 0 0 0 0 0 0 0 0 0 0 0.25 0"/>
<feBlend mode="normal" in2="BackgroundImageFix" result="effect1_dropShadow"/>
<feBlend mode="normal" in="SourceGraphic" in2="effect1_dropShadow" result="shape"/>
</filter>
</defs>
</svg>
