<svg width="233" height="312" viewBox="0 0 233 312" fill="none" xmlns="http://www.w3.org/2000/svg">
<g filter="url(#filter0_d)">
<path fill-rule="evenodd" clip-rule="evenodd" d="M44.5021 0H42C23.1438 0 13.7157 0 7.85786 5.85786C2 11.7157 2 21.1438 2 40V48H5V40C5 30.4871 5.00637 23.6542 5.70548 18.4543C6.39299 13.3407 7.70056 10.2578 9.97918 7.97918C12.2578 5.70056 15.3407 4.39299 20.4543 3.70548C25.6542 3.00637 32.4871 3 42 3H44.5089L44.5021 0ZM45.1911 305H42C32.4871 305 25.6542 304.994 20.4543 304.295C15.3407 303.607 12.2578 302.299 9.97918 300.021C7.70056 297.742 6.39299 294.659 5.70548 289.546C5.00637 284.346 5 277.513 5 268V259H2V268C2 286.856 2 296.284 7.85786 302.142C13.7157 308 23.1438 308 42 308H45.1979L45.1911 305ZM188.5 308L188.493 305H191C200.513 305 207.346 304.994 212.546 304.295C217.659 303.607 220.742 302.299 223.021 300.021C225.299 297.742 226.607 294.659 227.295 289.546C227.994 284.346 228 277.513 228 268V259H231V268C231 286.856 231 296.284 225.142 302.142C219.284 308 209.856 308 191 308H188.5ZM187.811 3L187.804 0H191C209.856 0 219.284 0 225.142 5.85786C231 11.7157 231 21.1438 231 40V48H228V40C228 30.4871 227.994 23.6542 227.295 18.4543C226.607 13.3407 225.299 10.2578 223.021 7.97918C220.742 5.70056 217.659 4.39299 212.546 3.70548C207.346 3.00637 200.513 3 191 3H187.811Z" fill="white"/>
</g>
<defs>
<filter id="filter0_d" x="0" y="0" width="233" height="312" filterUnits="userSpaceOnUse" color-interpolation-filters="sRGB">
<feFlood flood-opacity="0" result="BackgroundImageFix"/>
<feColorMatrix in="SourceAlpha" type="matrix" values="0 0 0 0 0 0 0 0 0 0 0 0 0 0 0 0 0 0 127 0"/>
<feOffset dy="2"/>
<feGaussianBlur stdDeviation="1"/>
<feColorMatrix type="matrix" values="0 0 0 0 0 0 0 0 0 0 0 0 0 0 0 0 0 0 0.45 0"/>
<feBlend mode="normal" in2="BackgroundImageFix" result="effect1_dropShadow"/>
<feBlend mode="normal" in="SourceGraphic" in2="effect1_dropShadow" result="shape"/>
</filter>
</defs>
</svg>
